<?xml version="1.0" encoding="UTF-8"?><svg xmlns="http://www.w3.org/2000/svg" xmlns:xlink="http://www.w3.org/1999/xlink" fill-opacity="1" color-rendering="auto" color-interpolation="auto" text-rendering="auto" stroke="black" stroke-linecap="square" width="744" stroke-miterlimit="10" shape-rendering="auto" stroke-opacity="1" fill="black" stroke-dasharray="none" font-weight="normal" stroke-width="1" height="328" font-family="'Dialog'" font-style="normal" stroke-linejoin="miter" font-size="12px" stroke-dashoffset="0" image-rendering="auto">
  <!--Generated by ySVG 2.5-->
  <defs id="genericDefs"/>
  <g>
    <defs id="defs1">
      <clipPath clipPathUnits="userSpaceOnUse" id="clipPath1">
        <path d="M0 0 L744 0 L744 328 L0 328 L0 0 Z"/>
      </clipPath>
      <clipPath clipPathUnits="userSpaceOnUse" id="clipPath2">
        <path d="M1020 524 L1764 524 L1764 852 L1020 852 L1020 524 Z"/>
      </clipPath>
      <clipPath clipPathUnits="userSpaceOnUse" id="clipPath3">
        <path d="M1274 725 L1274 788 L1405 788 L1405 725 Z"/>
      </clipPath>
      <clipPath clipPathUnits="userSpaceOnUse" id="clipPath4">
        <path d="M1448 725 L1448 788 L1579 788 L1579 725 Z"/>
      </clipPath>
      <clipPath clipPathUnits="userSpaceOnUse" id="clipPath5">
        <path d="M1622 725 L1622 788 L1753 788 L1753 725 Z"/>
      </clipPath>
      <clipPath clipPathUnits="userSpaceOnUse" id="clipPath6">
        <path d="M1025 551 L1025 644 L1188 644 L1188 551 Z"/>
      </clipPath>
      <clipPath clipPathUnits="userSpaceOnUse" id="clipPath7">
        <path d="M1061 817 L1061 846 L1152 846 L1152 817 Z"/>
      </clipPath>
      <clipPath clipPathUnits="userSpaceOnUse" id="clipPath8">
        <path d="M1429 559 L1429 644 L1592 644 L1592 559 Z"/>
      </clipPath>
      <clipPath clipPathUnits="userSpaceOnUse" id="clipPath9">
        <path d="M0 0 L0 16 L107 16 L107 0 Z"/>
      </clipPath>
    </defs>
    <g fill="white" text-rendering="geometricPrecision" shape-rendering="geometricPrecision" transform="translate(-1020,-524)" stroke="white">
      <rect x="1020" width="744" height="328" y="524" clip-path="url(#clipPath2)" stroke="none"/>
    </g>
    <g text-rendering="geometricPrecision" stroke-miterlimit="1.45" shape-rendering="geometricPrecision" font-family="sans-serif" transform="matrix(1,0,0,1,-1020,-524)" stroke-linecap="butt">
      <text x="1246.4128" xml:space="preserve" y="547.6694" clip-path="url(#clipPath2)" stroke="none">Gekapseltes Verhalten</text>
      <rect x="1240.4128" y="529.6049" clip-path="url(#clipPath2)" fill="none" width="517.8284" stroke-dasharray="6,2" rx="4" ry="4" height="275.725"/>
    </g>
    <g fill="rgb(255,204,0)" text-rendering="geometricPrecision" shape-rendering="geometricPrecision" transform="matrix(1,0,0,1,-1020,-524)" stroke="rgb(255,204,0)">
      <rect x="1275" width="129" height="61" y="726" clip-path="url(#clipPath2)" stroke="none"/>
      <rect x="1274" y="725" clip-path="url(#clipPath2)" fill="yellow" width="1" height="63" stroke="none"/>
      <rect x="1275" y="725" clip-path="url(#clipPath2)" fill="yellow" width="129" height="1" stroke="none"/>
      <rect x="1275" y="787" clip-path="url(#clipPath2)" fill="rgb(178,142,0)" width="130" height="1" stroke="none"/>
      <rect x="1404" y="725" clip-path="url(#clipPath2)" fill="rgb(178,142,0)" width="1" height="62" stroke="none"/>
    </g>
    <g font-size="13px" stroke-linecap="butt" transform="matrix(1,0,0,1,-1020,-524)" text-rendering="geometricPrecision" font-family="sans-serif" shape-rendering="geometricPrecision" font-weight="bold" stroke-miterlimit="1.45">
      <text x="1281.3199" xml:space="preserve" y="743.4302" clip-path="url(#clipPath3)" stroke="none">ConcreteStrategyA</text>
    </g>
    <g text-rendering="geometricPrecision" shape-rendering="geometricPrecision" transform="matrix(1,0,0,1,-1020,-524)">
      <line y2="751" fill="none" x1="1275" clip-path="url(#clipPath3)" x2="1404" y1="751"/>
      <line y2="761" fill="none" x1="1275" clip-path="url(#clipPath3)" x2="1404" y1="761"/>
      <text stroke-linecap="butt" x="1279.6184" y="778.3511" clip-path="url(#clipPath3)" font-family="sans-serif" stroke="none" stroke-miterlimit="1.45" xml:space="preserve">executeAlgorithm()</text>
      <rect x="1449" y="726" clip-path="url(#clipPath2)" fill="rgb(255,204,0)" width="129" height="61" stroke="none"/>
      <rect x="1448" y="725" clip-path="url(#clipPath2)" fill="yellow" width="1" height="63" stroke="none"/>
      <rect x="1449" y="725" clip-path="url(#clipPath2)" fill="yellow" width="129" height="1" stroke="none"/>
      <rect x="1449" y="787" clip-path="url(#clipPath2)" fill="rgb(178,142,0)" width="130" height="1" stroke="none"/>
      <rect x="1578" y="725" clip-path="url(#clipPath2)" fill="rgb(178,142,0)" width="1" height="62" stroke="none"/>
    </g>
    <g font-size="13px" stroke-linecap="butt" transform="matrix(1,0,0,1,-1020,-524)" text-rendering="geometricPrecision" font-family="sans-serif" shape-rendering="geometricPrecision" font-weight="bold" stroke-miterlimit="1.45">
      <text x="1455.2407" xml:space="preserve" y="743.4302" clip-path="url(#clipPath4)" stroke="none">ConcreteStrategyB</text>
    </g>
    <g text-rendering="geometricPrecision" shape-rendering="geometricPrecision" transform="matrix(1,0,0,1,-1020,-524)">
      <line y2="751" fill="none" x1="1449" clip-path="url(#clipPath4)" x2="1578" y1="751"/>
      <line y2="761" fill="none" x1="1449" clip-path="url(#clipPath4)" x2="1578" y1="761"/>
      <text stroke-linecap="butt" x="1453.5393" y="778.3511" clip-path="url(#clipPath4)" font-family="sans-serif" stroke="none" stroke-miterlimit="1.45" xml:space="preserve">executeAlgorithm()</text>
      <rect x="1623" y="726" clip-path="url(#clipPath2)" fill="rgb(255,204,0)" width="129" height="61" stroke="none"/>
      <rect x="1622" y="725" clip-path="url(#clipPath2)" fill="yellow" width="1" height="63" stroke="none"/>
      <rect x="1623" y="725" clip-path="url(#clipPath2)" fill="yellow" width="129" height="1" stroke="none"/>
      <rect x="1623" y="787" clip-path="url(#clipPath2)" fill="rgb(178,142,0)" width="130" height="1" stroke="none"/>
      <rect x="1752" y="725" clip-path="url(#clipPath2)" fill="rgb(178,142,0)" width="1" height="62" stroke="none"/>
    </g>
    <g font-size="13px" stroke-linecap="butt" transform="matrix(1,0,0,1,-1020,-524)" text-rendering="geometricPrecision" font-family="sans-serif" shape-rendering="geometricPrecision" font-weight="bold" stroke-miterlimit="1.45">
      <text x="1629.1616" xml:space="preserve" y="743.4302" clip-path="url(#clipPath5)" stroke="none">ConcreteStrategyC</text>
    </g>
    <g text-rendering="geometricPrecision" shape-rendering="geometricPrecision" transform="matrix(1,0,0,1,-1020,-524)">
      <line y2="751" fill="none" x1="1623" clip-path="url(#clipPath5)" x2="1752" y1="751"/>
      <line y2="761" fill="none" x1="1623" clip-path="url(#clipPath5)" x2="1752" y1="761"/>
      <text stroke-linecap="butt" x="1627.4602" y="778.3511" clip-path="url(#clipPath5)" font-family="sans-serif" stroke="none" stroke-miterlimit="1.45" xml:space="preserve">executeAlgorithm()</text>
      <rect x="1026" y="552" clip-path="url(#clipPath2)" fill="rgb(255,204,0)" width="161" height="91" stroke="none"/>
      <rect x="1025" y="551" clip-path="url(#clipPath2)" fill="yellow" width="1" height="93" stroke="none"/>
      <rect x="1026" y="551" clip-path="url(#clipPath2)" fill="yellow" width="161" height="1" stroke="none"/>
      <rect x="1026" y="643" clip-path="url(#clipPath2)" fill="rgb(178,142,0)" width="162" height="1" stroke="none"/>
      <rect x="1187" y="551" clip-path="url(#clipPath2)" fill="rgb(178,142,0)" width="1" height="92" stroke="none"/>
    </g>
    <g font-size="13px" stroke-linecap="butt" transform="matrix(1,0,0,1,-1020,-524)" text-rendering="geometricPrecision" font-family="sans-serif" shape-rendering="geometricPrecision" font-weight="bold" stroke-miterlimit="1.45">
      <text x="1083.2205" xml:space="preserve" y="569.5046" clip-path="url(#clipPath6)" stroke="none">Context</text>
    </g>
    <g text-rendering="geometricPrecision" shape-rendering="geometricPrecision" transform="matrix(1,0,0,1,-1020,-524)">
      <line y2="577" fill="none" x1="1026" clip-path="url(#clipPath6)" x2="1187" y1="577"/>
      <line y2="587" fill="none" x1="1026" clip-path="url(#clipPath6)" x2="1187" y1="587"/>
      <text stroke-linecap="butt" x="1030.9146" y="604.4255" clip-path="url(#clipPath6)" font-family="sans-serif" stroke="none" stroke-miterlimit="1.45" xml:space="preserve">execute()</text>
      <text stroke-linecap="butt" x="1030.9146" y="619.1267" clip-path="url(#clipPath6)" font-family="sans-serif" stroke="none" stroke-miterlimit="1.45" xml:space="preserve">setStrategy(Strategy)</text>
      <text stroke-linecap="butt" x="1030.9146" y="633.8279" clip-path="url(#clipPath6)" font-family="sans-serif" stroke="none" stroke-miterlimit="1.45" xml:space="preserve">getStrategy(): Strategy</text>
      <rect x="1061.9145" y="817.669" clip-path="url(#clipPath2)" fill="white" width="91" height="29.0946" stroke="none"/>
    </g>
    <g stroke-linecap="butt" transform="matrix(1,0,0,1,-1020,-524)" fill="gray" text-rendering="geometricPrecision" shape-rendering="geometricPrecision" stroke="gray" stroke-miterlimit="1.45">
      <rect fill="none" x="1061.9145" width="91" height="29.0946" y="817.669" clip-path="url(#clipPath2)"/>
      <text x="1089.3586" font-size="13px" y="835.7388" clip-path="url(#clipPath7)" font-family="sans-serif" stroke="none" font-weight="bold" xml:space="preserve">Client</text>
    </g>
    <g fill="rgb(255,204,0)" text-rendering="geometricPrecision" shape-rendering="geometricPrecision" transform="matrix(1,0,0,1,-1020,-524)" stroke="rgb(255,204,0)">
      <rect x="1430" width="161" height="83" y="560" clip-path="url(#clipPath2)" stroke="none"/>
      <rect x="1429" y="559" clip-path="url(#clipPath2)" fill="yellow" width="1" height="85" stroke="none"/>
      <rect x="1430" y="559" clip-path="url(#clipPath2)" fill="yellow" width="161" height="1" stroke="none"/>
      <rect x="1430" y="643" clip-path="url(#clipPath2)" fill="rgb(178,142,0)" width="162" height="1" stroke="none"/>
      <rect x="1591" y="559" clip-path="url(#clipPath2)" fill="rgb(178,142,0)" width="1" height="84" stroke="none"/>
    </g>
    <g text-rendering="geometricPrecision" stroke-miterlimit="1.45" shape-rendering="geometricPrecision" font-family="sans-serif" transform="matrix(1,0,0,1,-1020,-524)" stroke-linecap="butt">
      <text x="1473.5901" xml:space="preserve" y="576.4248" clip-path="url(#clipPath8)" stroke="none">&lt;&lt;interface&gt;&gt;</text>
      <text x="1484.6089" font-size="13px" y="601.1313" clip-path="url(#clipPath8)" font-style="italic" stroke="none" font-weight="bold" xml:space="preserve">Strategy</text>
      <line stroke-linecap="square" clip-path="url(#clipPath8)" fill="none" x1="1430" x2="1591" y1="608" y2="608" stroke-miterlimit="10"/>
      <line stroke-linecap="square" clip-path="url(#clipPath8)" fill="none" x1="1430" x2="1591" y1="618" y2="618" stroke-miterlimit="10"/>
    </g>
    <g stroke-linecap="butt" transform="matrix(1,0,0,1,-1020,-524) translate(1434,623)" text-rendering="geometricPrecision" font-family="sans-serif" shape-rendering="geometricPrecision" font-style="italic" stroke-miterlimit="1.45">
      <text x="0" xml:space="preserve" y="13" clip-path="url(#clipPath9)" stroke="none">executeAlgorithm() </text>
    </g>
    <g fill="rgb(255,204,0)" text-rendering="geometricPrecision" shape-rendering="geometricPrecision" transform="matrix(1,0,0,1,-1020,-524)" stroke="rgb(255,204,0)">
      <rect x="1083.0416" width="10.2127" height="15.4199" y="590.4772" clip-path="url(#clipPath2)" stroke="none"/>
    </g>
    <g stroke-linecap="butt" transform="matrix(1,0,0,1,-1020,-524)" fill="silver" text-rendering="geometricPrecision" shape-rendering="geometricPrecision" stroke="silver" stroke-miterlimit="1.45">
      <path fill="none" d="M1107.4146 817.6752 L1107.4146 652.9409" clip-path="url(#clipPath2)"/>
      <path d="M1107.4146 644.9409 L1102.4146 656.9409 L1107.4146 653.9409 L1112.4146 656.9409 Z" clip-path="url(#clipPath2)" stroke="none"/>
      <path fill="none" d="M1152.9084 832.2162 L1340.1976 832.2162 L1340.1976 796.6181" clip-path="url(#clipPath2)"/>
      <path d="M1340.1976 788.6181 L1335.1976 800.6181 L1340.1976 797.6181 L1345.1976 800.6181 Z" clip-path="url(#clipPath2)" stroke="none"/>
      <path fill="none" d="M1152.9403 832.2162 L1514.1184 832.2162 L1514.1184 796.6181" clip-path="url(#clipPath2)"/>
      <path d="M1514.1184 788.6181 L1509.1184 800.6181 L1514.1184 797.6181 L1519.1184 800.6181 Z" clip-path="url(#clipPath2)" stroke="none"/>
      <path fill="none" d="M1152.8822 832.2162 L1688.0393 832.2162 L1688.0393 796.6181" clip-path="url(#clipPath2)"/>
      <path d="M1688.0393 788.6181 L1683.0393 800.6181 L1688.0393 797.6181 L1693.0393 800.6181 Z" clip-path="url(#clipPath2)" stroke="none"/>
      <path fill="none" stroke-dasharray="6,2" d="M1510.7828 725.3522 L1510.7828 679.5719 L1510.6184 679.5719 L1510.6184 659.9059" clip-path="url(#clipPath2)" stroke="black"/>
      <path fill="white" stroke-dasharray="6,2" d="M1510.6184 644.9059 L1504.6184 660.9059 L1516.6184 660.9059 Z" clip-path="url(#clipPath2)" stroke="none"/>
      <path fill="none" d="M1510.6184 644.9059 L1504.6184 660.9059 L1516.6184 660.9059 Z" clip-path="url(#clipPath2)" stroke="black"/>
      <path fill="none" stroke-dasharray="6,2" d="M1340.1976 725.3867 L1340.1976 685.15 L1451 685.15 L1451 659.9454" clip-path="url(#clipPath2)" stroke="black"/>
      <path fill="white" stroke-dasharray="6,2" d="M1451 644.9454 L1445 660.9454 L1457 660.9454 Z" clip-path="url(#clipPath2)" stroke="none"/>
      <path fill="none" d="M1451 644.9454 L1445 660.9454 L1457 660.9454 Z" clip-path="url(#clipPath2)" stroke="black"/>
      <path fill="none" stroke-dasharray="6,2" d="M1688.0393 725.3867 L1688.0393 685.15 L1567.0986 685.15 L1567.0986 659.9063" clip-path="url(#clipPath2)" stroke="black"/>
      <path fill="white" stroke-dasharray="6,2" d="M1567.0986 644.9063 L1561.0986 660.9063 L1573.0986 660.9063 Z" clip-path="url(#clipPath2)" stroke="none"/>
      <path fill="none" d="M1567.0986 644.9063 L1561.0986 660.9063 L1573.0986 660.9063 Z" clip-path="url(#clipPath2)" stroke="black"/>
      <path fill="none" d="M1429.093 572.3009 L1195.8896 572.3009" clip-path="url(#clipPath2)" stroke="black"/>
      <path fill="white" d="M1188.8896 572.3009 L1195.8896 567.3009 L1202.8896 572.3009 L1195.8896 577.3009 Z" clip-path="url(#clipPath2)" stroke="none"/>
      <path fill="none" d="M1188.8896 572.3009 L1195.8896 567.3009 L1202.8896 572.3009 L1195.8896 577.3009 Z" clip-path="url(#clipPath2)" stroke="black"/>
      <text x="1410.3196" y="588.3654" clip-path="url(#clipPath2)" fill="black" font-family="sans-serif" stroke="none" xml:space="preserve">1</text>
      <text x="1374.3079" y="565.6642" clip-path="url(#clipPath2)" fill="black" font-family="sans-serif" stroke="none" xml:space="preserve">strategy</text>
      <path fill="none" stroke-dasharray="6,2" d="M1093.2362 598.1872 L1304.1223 598.1872 L1304.1223 631.7625 L1421.1101 631.7625" clip-path="url(#clipPath2)" stroke="black"/>
      <path fill="black" stroke-dasharray="6,2" d="M1429.1101 631.7625 L1417.1101 626.7625 L1420.1101 631.7625 L1417.1101 636.7625 Z" clip-path="url(#clipPath2)" stroke="none"/>
      <text x="1255.0852" y="591.5505" clip-path="url(#clipPath2)" fill="black" font-family="sans-serif" stroke="none" xml:space="preserve">&lt;&lt;call&gt;&gt;</text>
    </g>
  </g>
</svg>
